<svg xmlns="http://www.w3.org/2000/svg" viewBox="0 0 97 75" width="100%" height="100%"><path fill="#02BBB9" d="M83.318 41.959C78.884 27.566 70.007 10.12 64.889.255c4.769.336 8.536.867 12.619 1.962.045 9.753 5.064 26.462 5.81 39.742z"></path><path fill="#1268B3" d="M.06 49.906v-5.91c2.014.965 4.51 1.926 7.224 1.926 2.888 0 4.158-.961 4.158-2.54 0-2.101-1.882-2.144-6.086-3.979C2.6 38.218.016 36.12.016 31.566c0-5.517 4.159-8.058 9.851-8.058 3.021 0 5.473.658 7.004 1.228v5.777c-1.4-.657-3.939-1.487-6.479-1.487-2.496 0-3.635.83-3.635 2.276 0 1.577 1.489 2.144 4.028 3.064 4.159 1.49 7.793 3.11 7.793 8.71 0 5.561-4.378 8.407-10.068 8.407-3.547-.001-6.263-.613-8.45-1.577z"></path><g fill="#1268B3"><path d="M71.234 41.936c1.744 0 3.43.004 5.043.006l-2.766-4.445c-.738-1.164-1.599-2.591-2.184-3.758a11.156 11.156 0 0 1-.213-.141c.045 1.167.117 2.51.117 3.68v4.659h.003zM65.193 41.93V29.708C53.529 22.104 40.972 14.162 31.145 7.087c-3.956 3.597-6.228 9.716-7.504 16.77h6.219v18.092l6.699-.008V23.903h9.938c10.026 0 13.704 6.564 13.704 13.615 0 1.479-.188 2.976-.58 4.412h5.572z"></path></g><path fill="#F15D2C" d="M76.277 41.941c-1.613-.002-3.299-.006-5.043-.006v9.219h-6.041V41.93H59.62c-1.354 4.979-5.269 9.202-13.254 9.202h-9.808v-9.19l-6.699.008v9.184h-7.005c1.553 10.307 5.798 17.315 15.512 20.531 12.646-9.016 28.416-15.887 40.421-25.682l-2.51-4.042z"></path><path fill="#E78040" d="M78.787 45.982c-12.005 9.795-27.775 16.666-40.421 25.682 3.381 1.232 7.042 2.006 11.194 2.531 9.33-8.398 21.112-16.35 29.926-27.09l-.699-1.123z"></path><path fill="#682C91" d="M82.578 51.154h-.573l-2.519-4.049c-8.812 10.74-20.596 18.69-29.926 27.09 11.121 1.313 21.821 1.187 30.61-1.858-.83-6.969 1.237-13.468 2.408-21.183z"></path><path fill="#26ABCE" d="M86.286 51.154h-3.708c-1.171 7.715-3.238 14.214-2.406 21.183 4.76-1.698 7.76-3.812 10.465-7.606-2.633-5.181-3.338-9.238-4.351-13.577z"></path><path fill="#FFF" d="M89.316 50.068v1.086h-3.03c1.013 4.339 1.718 8.396 4.351 13.576 1.445-2.035 2.676-4.647 3.551-7.358-2.267-2.999-3.583-5.205-4.872-7.304z"></path><path fill="#18984A" d="M96.906 31.664c-3.258 1.547-5.069 4.315-7.59 6.697v11.707c1.289 2.099 2.604 4.305 4.871 7.304 2.482-7.772 3.096-16.256 2.719-25.708z"></path><path fill="#FFF" d="M96.648 27.822c-3.207 2.323-4.981 5.774-7.332 8.879v1.66c2.521-2.382 4.332-5.15 7.59-6.697a68.918 68.918 0 0 0-.258-3.842z"></path><path fill="#F15D2C" d="M95.693 21.336l-.149-.678c-2.87 3.33-4.456 7.573-6.228 11.668v4.375c2.351-3.104 4.125-6.556 7.332-8.879-.21-2.269-.519-4.435-.955-6.486z"></path><path fill="#002D6A" d="M89.316 23.878v8.448c1.771-4.095 3.356-8.339 6.228-11.668-1.123-4.866-2.776-8.525-5.628-11.617-1.988 4.236-2.811 9.459-3.459 14.837h2.859z"></path><path fill="#48BA7F" d="M86.457 23.878c.648-5.378 1.471-10.601 3.459-14.837a19.789 19.789 0 0 0-4.066-3.357c-1.58 4.995-1.672 11.492-1.67 18.195l2.277-.001z"></path><path fill="#002D6A" d="M83.686 23.878c-.187-6.958-.305-13.7 1.117-18.813-.322-.178-.213-.121-.544-.293-1.329 5.171-1.104 12.024-.819 19.106h.246z"></path><path fill="#48BA7F" d="M83.273 23.878h.166c-.285-7.082-.512-13.936.818-19.106a28.054 28.054 0 0 0-2.29-1.066c-1.335 7.819.77 19.708 1.309 30.558V23.878h-.003z"></path><path fill="#1268B3" d="M83.273 37.713v-3.45c-.539-10.85-2.643-22.739-1.308-30.558a35.578 35.578 0 0 0-4.459-1.488c.044 9.753 5.065 26.461 5.812 39.742-.088-1.227-.045-3.105-.045-4.246z"></path><path fill="#E78040" d="M83.318 41.959C78.884 27.566 70.007 10.12 64.889.255A93.198 93.198 0 0 0 55.35.039c8.39 9.711 19.572 25.687 26.8 39.624.452.835.868 1.646 1.168 2.296z"></path><path fill="#682C91" d="M72.416 23.878l1.822 2.919a208.964 208.964 0 0 1 5.928 9.501l.744 1.196c.41.679.84 1.431 1.24 2.168C74.922 25.726 63.738 9.75 55.35.04c-.473.014-1.099.034-1.57.056 5.641 6.176 12.373 14.787 18.503 23.783l.133-.001z"></path><path fill="#26ABCE" d="M72.281 23.878C66.15 14.882 59.419 6.271 53.779.095c-.937.041-1.399.068-2.32.136 6.109 6.23 13.291 14.758 19.852 23.647h.97z"></path><path fill="#18984A" d="M71.311 23.878C64.75 14.989 57.568 6.461 51.459.231c-1.843.133-3.48.308-5.208.572 7.021 6.323 15.128 14.558 22.612 23.075h2.448z"></path><path fill="#FFF" d="M65.193 23.878h3.67C61.379 15.361 53.271 7.126 46.251.803c-3.019.465-5.411 1.037-7.928 1.985 8.21 6.517 17.832 14.324 26.871 22.208v-1.118z"></path><path fill="#F15D2C" d="M65.193 24.997c-9.039-7.884-18.66-15.691-26.871-22.208-1.795.678-3.423 1.498-4.891 2.49 9.391 7.002 20.976 15.037 31.761 22.872v-3.154z"></path><path fill="#002D6A" d="M65.193 28.15c-10.785-7.834-22.37-15.869-31.761-22.872-.293.199-.195.131-.483.336 9.49 7.03 21.277 15.056 32.244 22.858v-.322z"></path><path fill="#FFF" d="M84.18 23.878c-.002-6.703.09-13.2 1.67-18.195a28.238 28.238 0 0 0-1.047-.618c-1.422 5.113-1.304 11.855-1.117 18.813h.494z"></path><g fill="#48BA7F"><path d="M71.104 33.292l.013.304c.071.049.142.095.213.141-.077-.146-.162-.306-.226-.445zM65.193 28.473C54.229 20.67 42.439 12.645 32.949 5.615c-.574.412-1.293 1-1.805 1.472 9.827 7.075 22.385 15.017 34.049 22.621v-1.235z"></path></g><path fill="#F15D2C" d="M52.361 41.93c-3.073 0-6.096.004-8.974.006v3.594h2.32c3.805-.001 5.743-1.4 6.654-3.6z"></path><path fill="#1268B3" d="M45.971 29.417h-2.583v12.519c2.878-.002 5.9-.006 8.973-.006.517-1.246.703-2.748.703-4.412 0-4.641-1.357-8.101-7.093-8.101z"></path></svg>
