<?xml version="1.0" encoding="utf-8"?>
<!-- Generator: Adobe Illustrator 27.0.0, SVG Export Plug-In . SVG Version: 6.00 Build 0)  -->
<svg version="1.1"
	 id="svg2" xmlns:cc="http://creativecommons.org/ns#" xmlns:rdf="http://www.w3.org/1999/02/22-rdf-syntax-ns#" xmlns:svg="http://www.w3.org/2000/svg" xmlns:dc="http://purl.org/dc/elements/1.1/"
	 xmlns="http://www.w3.org/2000/svg" xmlns:xlink="http://www.w3.org/1999/xlink" x="0px" y="0px" viewBox="0 0 423.3 415.7"
	 style="enable-background:new 0 0 423.3 415.7;" xml:space="preserve">
<style type="text/css">
	.st0{fill:#5E7171;}
	.st1{enable-background:new    ;}
	.st2{fill:#FFFFFF;}
	
		.st3{fill:none;stroke:url(#path32_00000008841758295053104640000002117961913303506365_);stroke-width:10.8891;stroke-linecap:round;stroke-linejoin:round;stroke-miterlimit:10;}
</style>
<g id="g10" transform="matrix(1.3333333,0,0,-1.3333333,0,415.74667)">
	<g id="g12" transform="matrix(0.1,0,0,0.1,0,5.2849155)">
		<path id="path14" class="st0" d="M479.6,2758.1c0,0-119.6,0-119.6-119.6V498.2c0,0,0-119.6,119.6-119.6h2231.8
			c0,0,119.6,0,119.6,119.6v2140.3c0,0,0,119.6-119.6,119.6H479.6"/>
		<g id="g16" transform="scale(10)">
			<g class="st1">
				<path class="st2" d="M83,74.5c-0.9-4-2.7-7.1-5.3-9.3C75,63.1,71.9,62,68.2,62c-3.3,0.1-6.1,0.9-8.3,2.5
					c-2.3,1.5-3.9,3.3-4.9,5.3c-0.3,0.7-0.6,1.3-0.8,1.9c-0.2,0.6-0.4,1.4-0.6,2.3c-0.3,1.8-0.4,5.1-0.4,10.1
					c0,5.1,0.1,8.4,0.4,10.2c0.3,1.7,0.8,3.1,1.4,4.1c1,2,2.7,3.8,4.9,5.4c2.2,1.6,5,2.4,8.3,2.4c4.1,0,7.4-1.3,9.9-3.7
					c2.6-2.5,4.2-5.5,4.9-9.2h-6.8c-0.5,1.8-1.5,3.3-2.8,4.5c-1.4,1.2-3.2,1.8-5.2,1.8c-1.5,0-2.8-0.3-3.9-0.9
					c-1.1-0.6-2-1.3-2.7-2.2c-0.8-0.9-1.4-2.1-1.7-3.6c-0.3-1.6-0.5-4.5-0.5-8.8c0-4.3,0.2-7.2,0.5-8.7c0.3-1.5,0.8-2.7,1.7-3.7
					c0.7-0.9,1.6-1.6,2.7-2.2c1.1-0.7,2.4-1,3.9-1c3.6,0,6.3,2,8.1,6H83z"/>
			</g>
			<g class="st1">
				<path class="st2" d="M94.1,105.9h26.9v-6.2h-20.6V87.2h17.5v-5.8h-17.5V68.6h20.6v-6.2H94.1V105.9z"/>
			</g>
			<g class="st1">
				<path class="st2" d="M133.3,105.9h16.5c3.5,0,6.4-1,8.6-2.9c2.7-2.2,4.1-5.3,4.2-9.3c-0.1-5.9-2.8-9.9-8.1-12.1l9.8-19.3h-7.6
					L147.8,81h-8.2V62.4h-6.4V105.9z M139.7,86.8h9.7c2.4,0,4.2,0.8,5.4,2.2c1.2,1.3,1.8,2.9,1.8,4.8c0,2.3-0.7,3.9-2.1,4.9
					c-1.1,0.9-2.6,1.3-4.7,1.3h-10V86.8z"/>
			</g>
			<g class="st1">
				<path class="st2" d="M181.8,100.1h-11.6v5.8h29.5v-5.8h-11.6V62.4h-6.4V100.1z"/>
			</g>
		</g>
		
			<linearGradient id="path32_00000160906341022035354220000008219758674170048907_" gradientUnits="userSpaceOnUse" x1="-3513.8616" y1="-1380.275" x2="-3512.8616" y2="-1380.275" gradientTransform="matrix(316.4467 0 0 316.4467 1112555.125 438357)">
			<stop  offset="0" style="stop-color:#C1C5C6"/>
			<stop  offset="0.4514" style="stop-color:#C1C5C6"/>
			<stop  offset="0.7331" style="stop-color:#5EBF87"/>
			<stop  offset="1" style="stop-color:#5EBF87"/>
		</linearGradient>
		
			<path id="path32" style="fill:none;stroke:url(#path32_00000160906341022035354220000008219758674170048907_);stroke-width:10.8891;stroke-linecap:round;stroke-linejoin:round;stroke-miterlimit:10;" d="
			M1730.8,1533.3l-723.5-0.9l584.1,724.9v222.4l-994.8-0.8l0.8-269.1h561.9l-561.9-683.8v-262l1078.7-0.8l265.1,1215.6l284.9-1811.5
			l214.5,967.1l115.6-717l87.8,345.8h343.5"/>
	</g>
</g>
</svg>
