<svg xmlns="http://www.w3.org/2000/svg" width="310" height="74" viewBox="0 0 310 74"><g fill="none" fill-rule="evenodd"><path fill="#16C2F3" d="M96.797 62.9h4.496c-.318-1.195-1.213-1.717-2.201-1.717-.934 0-1.997.56-2.295 1.716zm7.013 1.734h-7.087c.242 1.343 1.193 2.163 2.33 2.163.728 0 1.642-.093 2.314-1.23l2.2.466c-.82 1.94-2.48 2.872-4.513 2.872-2.63 0-4.775-1.996-4.775-4.924 0-2.929 2.145-4.943 4.813-4.943 2.48 0 4.624 1.922 4.718 4.756v.84zm3.822-1.735h4.496c-.317-1.194-1.212-1.716-2.2-1.716-.934 0-1.997.56-2.296 1.716zm7.014 1.735h-7.088c.243 1.343 1.194 2.163 2.332 2.163.726 0 1.641-.093 2.312-1.23l2.201.466c-.82 1.94-2.48 2.872-4.513 2.872-2.63 0-4.775-1.996-4.775-4.924 0-2.929 2.145-4.943 4.812-4.943 2.48 0 4.625 1.922 4.719 4.756v.84zm11.171-1.679v5.67h-2.462v-5.147c0-1.306-.746-2.183-1.884-2.183-1.399 0-2.313.934-2.313 3.208v4.123h-2.462v-9.308h2.462v.84c.728-.728 1.696-1.12 2.929-1.12 2.238 0 3.73 1.604 3.73 3.917m8.97 2.704c.13.952.95 1.269 1.921 1.269.914 0 1.455-.41 1.455-.933 0-.336-.225-.67-1.026-.84l-1.902-.39c-1.68-.356-2.632-1.307-2.632-2.649 0-1.79 1.455-3.078 3.807-3.078 2.2 0 3.729 1.137 4.047 2.76l-2.35.466c-.093-.745-.747-1.286-1.772-1.286-.988 0-1.268.485-1.268.914 0 .298.112.616.838.783l2.22.485c1.642.354 2.444 1.38 2.444 2.63 0 2.052-1.66 3.115-4.085 3.115-2.052 0-3.937-.801-4.178-2.74l2.48-.506zm14.771-1.678c0-1.716-1.325-2.798-2.65-2.798-1.49 0-2.61 1.082-2.61 2.798s1.12 2.78 2.61 2.78c1.325 0 2.65-1.064 2.65-2.78zm2.461 4.644h-2.46v-.727c-.784.634-1.81 1.007-3.079 1.007-2.37 0-4.57-1.996-4.57-4.924 0-2.929 2.2-4.943 4.57-4.943 1.268 0 2.295.373 3.078 1.026v-.746h2.461v9.307zm11.919-5.67v5.67h-2.462v-5.147c0-1.306-.746-2.183-1.885-2.183-1.398 0-2.312.934-2.312 3.208v4.123h-2.462v-9.308h2.462v.84c.728-.728 1.696-1.12 2.928-1.12 2.238 0 3.73 1.604 3.73 3.917m9.325 5.26c-.97.523-1.641.69-2.425.69-2.2 0-3.655-1.157-3.655-3.712v-3.86h-1.996v-2.015h1.996v-2.817h2.461v2.817h3.04v2.014h-3.04v3.675c0 1.118.541 1.604 1.362 1.604.428 0 1.063-.187 1.548-.447l.71 2.052zm3.282-5.316h4.495c-.317-1.194-1.212-1.716-2.201-1.716-.933 0-1.996.56-2.294 1.716zm7.013 1.735h-7.088c.242 1.343 1.194 2.163 2.331 2.163.728 0 1.642-.093 2.314-1.23l2.2.466c-.82 1.94-2.48 2.872-4.514 2.872-2.63 0-4.774-1.996-4.774-4.924 0-2.929 2.145-4.943 4.812-4.943 2.48 0 4.626 1.922 4.72 4.756v.84zm9.007-.653c0-1.735-1.342-2.779-2.63-2.779-1.344 0-2.686 1.044-2.686 2.779 0 1.734 1.342 2.78 2.687 2.78 1.287 0 2.63-1.046 2.63-2.78m2.387 0c0 2.928-2.294 4.887-5.017 4.887-2.78 0-5.074-1.959-5.074-4.887 0-2.929 2.294-4.887 5.074-4.887 2.723 0 5.017 1.958 5.017 4.887m11.171-1.026v5.67h-2.461v-5.147c0-1.306-.747-2.183-1.884-2.183-1.4 0-2.314.934-2.314 3.208v4.123h-2.461v-9.308h2.461v.84c.728-.728 1.697-1.12 2.93-1.12 2.237 0 3.73 1.604 3.73 3.917"/><path fill="#66456C" d="M221.099 68.625h-8.264v-1.603l5-5.689h-4.868v-2.015h7.908v1.642l-4.998 5.651h5.222zm2.367.001h2.462v-9.308h-2.462v9.308zm2.723-12.087c0 .82-.634 1.436-1.492 1.436-.876 0-1.492-.616-1.492-1.436 0-.784.616-1.474 1.492-1.474.858 0 1.492.69 1.492 1.474zm4.439 6.36h4.495c-.317-1.194-1.212-1.716-2.2-1.716-.933 0-1.997.56-2.295 1.716zm7.013 1.735h-7.087c.242 1.343 1.193 2.163 2.331 2.163.727 0 1.641-.093 2.313-1.23l2.201.466c-.82 1.94-2.48 2.872-4.514 2.872-2.63 0-4.775-1.996-4.775-4.924 0-2.929 2.145-4.943 4.812-4.943 2.48 0 4.625 1.922 4.72 4.756v.84zm8.598 3.991l-3.656-3.637h-.429v3.637h-2.462V55.196h2.462v7.367h.447l3.339-3.245h3.096l-4.494 4.458 4.979 4.849zm6.545-5.725h4.495c-.317-1.195-1.212-1.717-2.2-1.717-.933 0-1.997.56-2.295 1.716zm7.013 1.734h-7.088c.243 1.343 1.194 2.163 2.332 2.163.727 0 1.641-.093 2.313-1.23l2.201.466c-.82 1.94-2.48 2.872-4.514 2.872-2.63 0-4.775-1.996-4.775-4.924 0-2.929 2.145-4.943 4.812-4.943 2.48 0 4.625 1.922 4.72 4.756v.84zm11.172-1.679v5.67h-2.462v-5.147c0-1.306-.747-2.183-1.884-2.183-1.399 0-2.313.934-2.313 3.208v4.123h-2.462v-9.308h2.462v.84c.728-.728 1.697-1.12 2.928-1.12 2.239 0 3.73 1.604 3.73 3.917m11.675 0v5.67h-2.461v-5.147c0-1.306-.747-2.183-1.885-2.183-1.398 0-2.313.934-2.313 3.208v4.123h-2.461v-13.43h2.461v4.961c.728-.727 1.698-1.119 2.93-1.119 2.237 0 3.73 1.604 3.73 3.917m11.45 5.67h-2.461v-.839c-.728.728-1.698 1.12-2.93 1.12-2.238 0-3.729-1.605-3.729-3.918v-5.67h2.461v5.148c0 1.305.747 2.182 1.885 2.182 1.398 0 2.313-.933 2.313-3.208v-4.122h2.461v9.307zm2.927 0h2.462v-9.307h-2.462v9.308zm2.723-12.086c0 .82-.634 1.436-1.491 1.436-.878 0-1.493-.616-1.493-1.436 0-.784.615-1.474 1.493-1.474.857 0 1.491.69 1.491 1.474zm4.365 9.12c.13.952.95 1.269 1.92 1.269.915 0 1.455-.41 1.455-.933 0-.336-.224-.67-1.026-.84l-1.902-.39c-1.679-.356-2.63-1.307-2.63-2.649 0-1.79 1.454-3.078 3.805-3.078 2.201 0 3.73 1.137 4.048 2.76l-2.35.466c-.093-.745-.747-1.286-1.772-1.286-.99 0-1.268.485-1.268.914 0 .298.111.616.839.783l2.22.485c1.64.354 2.443 1.38 2.443 2.63 0 2.052-1.66 3.115-4.085 3.115-2.052 0-3.937-.801-4.178-2.74l2.48-.506zm-167.6-31.148c0-4.211-3.251-6.867-6.503-6.867-3.66 0-6.408 2.656-6.408 6.867 0 4.212 2.749 6.822 6.408 6.822 3.252 0 6.502-2.61 6.502-6.822zm6.043 11.4h-6.044v-1.785c-1.922 1.555-4.44 2.47-7.553 2.47-5.814 0-11.216-4.896-11.216-12.085 0-7.188 5.402-12.131 11.216-12.131 3.112 0 5.63.915 7.553 2.518v-1.832h6.044v22.845zm22.887-1.007c-2.381 1.282-4.03 1.692-5.952 1.692-5.401 0-8.973-2.837-8.973-9.11v-9.475h-4.899v-4.944h4.9v-6.913h6.042v6.913h7.463v4.944h-7.463v9.019c0 2.745 1.328 3.937 3.34 3.937 1.054 0 2.612-.459 3.802-1.1l1.74 5.037zm25.607-12.91V45.91h-6.044V33.276c0-3.204-1.831-5.356-4.624-5.356-3.433 0-5.677 2.288-5.677 7.873v10.118h-6.042V12.949h6.042v12.177c1.785-1.784 4.167-2.746 7.188-2.746 5.494 0 9.157 3.937 9.157 9.613m22.569 2.518c0-4.211-3.25-6.867-6.501-6.867-3.662 0-6.41 2.656-6.41 6.867 0 4.212 2.748 6.822 6.41 6.822 3.25 0 6.5-2.61 6.5-6.822zm6.042 11.4h-6.042v-1.785c-1.923 1.555-4.441 2.47-7.554 2.47-5.814 0-11.216-4.896-11.216-12.085 0-7.188 5.402-12.131 11.216-12.131 3.113 0 5.631.915 7.554 2.518v-1.832h6.042v22.845zm21.601-22.982l-.32 5.814h-1.328c-5.585 0-8.15 3.433-8.15 9.797v7.37h-6.041V23.067h6.042v4.167c1.832-2.656 4.486-4.487 8.194-4.487.596 0 1.054 0 1.603.183m4.4 22.982h6.042V23.067h-6.042V45.91zm6.683-29.666c0 2.015-1.556 3.525-3.662 3.525-2.152 0-3.663-1.51-3.663-3.525a3.606 3.606 0 013.663-3.617 3.634 3.634 0 013.662 3.617zm28.114 15.748v13.918h-6.043V33.276c0-3.204-1.832-5.356-4.623-5.356-3.434 0-5.677 2.288-5.677 7.873v10.118h-6.043V23.066h6.043v2.06c1.784-1.784 4.165-2.746 7.187-2.746 5.493 0 9.156 3.937 9.156 9.613m22.524 2.518c0-4.211-3.25-6.867-6.502-6.867-3.661 0-6.408 2.656-6.408 6.867 0 4.212 2.747 6.822 6.408 6.822 3.251 0 6.502-2.61 6.502-6.822zm6.044 11.4h-6.044v-1.785c-1.922 1.555-4.441 2.47-7.553 2.47-5.814 0-11.217-4.896-11.217-12.085 0-7.188 5.403-12.131 11.217-12.131 3.112 0 5.63.915 7.553 2.518v-1.832h6.044v22.845zm-202.661-4.853c-3.8 0-6.364-2.61-6.364-6.546 0-3.891 2.563-6.592 6.364-6.592 1.934 0 3.597.709 4.68 2.33l4.453-3.737c-2.215-2.598-5.514-4.133-9.133-4.133-6.684 0-12.225 4.943-12.225 12.132 0 7.187 5.54 12.085 12.225 12.085 3.717 0 7.09-1.557 9.267-4.204l-4.424-3.71c-1.172 1.664-2.868 2.375-4.843 2.375"/><path fill="#664368" d="M17.098 36.837c0-10.706 8.68-19.385 19.385-19.385 10.706 0 19.384 8.679 19.384 19.385 0 3.561-.964 6.895-2.64 9.764h18.857a36.706 36.706 0 001.356-9.88C73.44 16.441 57 .001 36.72.001 16.44 0 0 16.44 0 36.72c0 3.424.478 6.734 1.355 9.88H19.74a19.292 19.292 0 01-2.64-9.764"/><path fill="#24BBE5" d="M55.868 36.837c0-10.706-8.68-19.385-19.385-19.385-10.705 0-19.385 8.679-19.385 19.385 0 3.561.965 6.895 2.64 9.764h33.489a19.288 19.288 0 002.64-9.764"/><path fill="#24BBE5" d="M53.227 46.6c-3.362 5.754-9.6 9.623-16.744 9.623s-13.382-3.87-16.745-9.623H1.355C5.671 62.08 19.864 73.44 36.72 73.44S67.77 62.08 72.084 46.6H53.227z"/><path fill="#FEFEFE" d="M40.695 46.6c3.77-1.664 6.403-5.43 6.403-9.816 0-5.927-4.805-10.731-10.732-10.731-5.926 0-10.731 4.804-10.731 10.73 0 4.387 2.633 8.153 6.403 9.817H19.622c3.362 5.754 9.6 9.623 16.745 9.623 7.144 0 13.381-3.87 16.743-9.623H40.695z"/></g></svg>